<svg height="218" preserveAspectRatio="xMidYMid" viewBox="0 0 174 218" width="174" xmlns="http://www.w3.org/2000/svg"><g fill-rule="evenodd"><path d="m137.998 217.234h-137.991v-169.995h137.991z" fill="#ff3a2f"/><path d="m113.693 47.828v118.027c0 13.937-11.35 25.234-25.354 25.234h-88.055v26.048h137.664v-169.309z" fill="#020403" opacity=".25"/><path d="m40.504 195.739c-1.996 0-3.5-1.619-3.5-3.614v-101.211c0-1.997 1.504-3.615 3.5-3.615s3.5 1.618 3.5 3.615v101.211c0 1.995-1.504 3.614-3.5 3.614z" fill="#142a3b"/><path d="m94.501 195.739c-1.996 0-3.5-1.619-3.5-3.614v-101.211c0-1.997 1.504-3.615 3.5-3.615s3.5 1.618 3.5 3.615v101.211c0 1.995-1.504 3.614-3.5 3.614z" fill="#142a3b"/><path d="m137.193 68.385v-20.557h-135.219s135.219 20.557 135.219 20.557z" fill="#020403" opacity=".35"/><g fill="#ff3a2f"><path d="m115.92 41.535s-55.387-17.432-55.387-17.432 7.662-24.118 7.662-24.118 55.388 17.432 55.388 17.432-7.663 24.118-7.663 24.118z"/><path d="m167.848 63.301c-.541 0-1.087-.081-1.629-.252 0 0-159.24-50.117-159.24-50.117-2.858-.899-4.445-3.943-3.545-6.799.9-2.858 3.944-4.442 6.798-3.545 0 0 159.24 50.116 159.24 50.116 2.859.9 4.445 3.945 3.544 6.801-.726 2.314-2.864 3.796-5.168 3.796z"/></g></g></svg>